<svg width="580" height="604" viewBox="0 0 580 604" fill="none" xmlns="http://www.w3.org/2000/svg">
<g clip-path="url(#clip0_27_382)">
<path d="M515.293 459.661L515.282 459.933L528.899 604H429.534L416.654 515.518L410.985 601.731L308.945 600.597L319.784 487.408L329.002 434.943V434.931L330.385 427.036H512.584L512.822 429.895L515.293 459.661Z" fill="#3C2A21"/>
<path d="M252.7 543.177C263.224 545.095 274.197 533.238 277.21 516.692C278.529 509.449 278.103 502.509 276.325 496.833L277.939 487.295L305.017 358.986C305.017 358.986 354.882 259.189 354.88 241.863C354.879 224.538 340.456 216.042 340.456 216.042L320.939 216.224L259.734 365.789L248.711 476.311L246.928 491.475C243.264 496.158 240.419 502.502 239.101 509.745C236.088 526.291 242.177 541.259 252.7 543.177Z" fill="#FFB6B6"/>
<path d="M451.235 154.217L433.094 112.245L374.138 122.455L370.169 171.836L451.235 154.217Z" fill="#FFB6B6"/>
<path opacity="0.1" d="M451.235 154.217L433.094 112.245L374.138 122.455L370.169 171.836L451.235 154.217Z" fill="black"/>
<path d="M579.352 241.565C579.352 241.565 537.402 163.292 529.466 155.352C525.933 151.817 520.379 151.768 515.301 152.798L456.904 132.664L437.11 121.537L435.806 142.706L370.823 154.376C371.184 141.466 373.004 136.556 373.004 136.556L349.195 164.427L302.71 187.114L302.735 187.319C299.324 188.51 296.09 190.549 293.639 193.921C284.569 206.399 259.626 358.406 259.626 358.406L312.914 369.75L320.166 324.216L325.385 365.212L329.353 441.783C329.353 441.783 401.915 504.174 437.063 481.487C472.21 458.799 515.293 459.933 515.293 459.933L516.369 424.441C517.134 423.217 517.561 422.499 517.561 422.499L516.427 296.6V263.099C525.065 275.139 535.488 285.493 547.606 290.343C587.289 306.225 579.352 241.565 579.352 241.565V241.565Z" fill="#FF7B54"/>
<path d="M397.454 129.839C427.409 129.839 451.692 105.543 451.692 75.5723C451.692 45.6014 427.409 21.3052 397.454 21.3052C367.499 21.3052 343.215 45.6014 343.215 75.5723C343.215 105.543 367.499 129.839 397.454 129.839Z" fill="#FFB6B6"/>
<path d="M436.364 90.9088C436.364 90.9088 441.08 74.3927 451.692 75.5725C462.304 76.7522 464.662 67.3144 462.304 62.5955C459.946 57.8766 455.229 34.2822 455.229 34.2822C455.229 34.2822 457.587 17.7662 443.438 15.4067C429.289 13.0473 424.573 10.6878 422.215 5.96896C419.856 1.25008 384.484 -3.4688 372.693 3.60953C360.902 10.6878 351.469 24.2686 343.215 28.0957C334.962 31.9228 327.887 39.0011 332.603 50.7983C337.32 62.5955 344.16 85.6683 344.16 85.6683C344.16 85.6683 356.185 81.471 358.543 88.5494C360.902 95.6277 351.469 86.1899 363.26 67.3144C375.051 48.4389 375.051 29.5634 393.916 36.6417C412.782 43.72 434.006 41.3606 431.647 55.5172C429.289 69.6738 436.364 90.9088 436.364 90.9088V90.9088Z" fill="#3C2A21"/>
<path d="M433.047 521.117H21.126C9.47689 521.117 0 511.634 0 499.98V281.052C0 269.398 9.47689 259.915 21.126 259.915H433.047C444.696 259.915 454.173 269.398 454.173 281.052V499.98C454.173 511.634 444.696 521.117 433.047 521.117Z" fill="#3C2A21"/>
<path d="M433.047 521.117H21.126C9.47689 521.117 0 511.634 0 499.98V281.052C0 269.398 9.47689 259.915 21.126 259.915H433.047C444.696 259.915 454.173 269.398 454.173 281.052V499.98C454.173 511.634 444.696 521.117 433.047 521.117ZM21.126 263.445C11.4226 263.445 3.52788 271.344 3.52788 281.052V499.98C3.52788 509.689 11.4226 517.587 21.126 517.587H433.047C442.75 517.587 450.645 509.689 450.645 499.98V281.052C450.645 271.344 442.75 263.445 433.047 263.445H21.126Z" fill="#AF897D"/>
<path d="M401.255 286.388C404.177 286.388 406.547 284.018 406.547 281.093C406.547 278.169 404.177 275.799 401.255 275.799C398.332 275.799 395.963 278.169 395.963 281.093C395.963 284.018 398.332 286.388 401.255 286.388Z" fill="white"/>
<path d="M415.366 286.388C418.289 286.388 420.658 284.018 420.658 281.093C420.658 278.169 418.289 275.799 415.366 275.799C412.444 275.799 410.074 278.169 410.074 281.093C410.074 284.018 412.444 286.388 415.366 286.388Z" fill="white"/>
<path d="M429.478 286.388C432.4 286.388 434.77 284.018 434.77 281.093C434.77 278.169 432.4 275.799 429.478 275.799C426.555 275.799 424.186 278.169 424.186 281.093C424.186 284.018 426.555 286.388 429.478 286.388Z" fill="white"/>
<path d="M30.4098 367.301C28.9508 367.301 27.7639 368.488 27.7639 369.948C27.7639 370.66 28.0387 371.318 28.5374 371.804C29.0404 372.32 29.6993 372.595 30.4098 372.595H426.373C427.832 372.595 429.019 371.408 429.019 369.948C429.019 369.236 428.744 368.578 428.245 368.092C427.742 367.577 427.083 367.301 426.373 367.301H30.4098Z" fill="#AF897D"/>
<path d="M376.559 365.808V372.867H29.9871C29.0169 372.867 28.1349 372.479 27.4999 371.826C26.8472 371.19 26.4592 370.308 26.4592 369.337C26.4592 367.396 28.0468 365.808 29.9871 365.808H376.559Z" fill="#FF7B54"/>
<path d="M421.963 353.182H386.684C382.793 353.182 379.628 350.015 379.628 346.122C379.628 342.229 382.793 339.062 386.684 339.062H421.963C425.853 339.062 429.019 342.229 429.019 346.122C429.019 350.015 425.853 353.182 421.963 353.182Z" fill="#AF897D"/>
<path d="M190.886 316.119H33.0558C29.1653 316.119 26 312.953 26 309.06C26 305.166 29.1653 302 33.0558 302H190.886C194.777 302 197.942 305.166 197.942 309.06C197.942 312.953 194.777 316.119 190.886 316.119Z" fill="#AF897D"/>
<path d="M30.4098 446.72C28.9508 446.72 27.7639 447.908 27.7639 449.368C27.7639 450.079 28.0387 450.738 28.5374 451.224C29.0404 451.739 29.6993 452.015 30.4098 452.015H426.373C427.832 452.015 429.019 450.827 429.019 449.368C429.019 448.656 428.744 447.997 428.245 447.511C427.742 446.996 427.083 446.72 426.373 446.72H30.4098Z" fill="#AF897D"/>
<path d="M240.736 445.228V452.287H29.9871C29.0169 452.287 28.1349 451.899 27.4999 451.246C26.8472 450.61 26.4592 449.728 26.4592 448.757C26.4592 446.816 28.0468 445.228 29.9871 445.228H240.736Z" fill="#FF7B54"/>
<path d="M421.963 432.601H386.684C382.793 432.601 379.628 429.435 379.628 425.541C379.628 421.648 382.793 418.482 386.684 418.482H421.963C425.853 418.482 429.019 421.648 429.019 425.541C429.019 429.435 425.853 432.601 421.963 432.601Z" fill="#AF897D"/>
<path d="M483.301 134.016C513.812 134.016 538.546 109.791 538.546 79.9066C538.546 50.0226 513.812 25.7969 483.301 25.7969C452.79 25.7969 428.056 50.0226 428.056 79.9066C428.056 109.791 452.79 134.016 483.301 134.016Z" fill="#FF7B54"/>
<path d="M502.051 52.6135C494.696 66.013 487.341 79.4126 479.987 92.8121C475.299 84.5255 470.637 76.2242 465.938 67.9441C464.315 65.0844 459.901 67.6565 461.528 70.5233C466.975 80.1218 472.366 89.7523 477.813 99.3509C478.745 100.992 481.302 101.03 482.223 99.3509C490.303 84.6315 498.382 69.9121 506.461 55.1927C508.044 52.3084 503.635 49.727 502.051 52.6135Z" fill="white"/>
<path d="M559.564 222.534L504.522 196.19C504.522 196.19 502.312 178.557 491.99 172.268C490.235 168.079 488.216 163.478 486.382 159.832C481.847 150.815 488.649 133.799 482.98 133.799C477.312 133.799 468.932 151.694 469.375 156.486C469.716 160.165 472.754 166.588 473.382 172.21C466.469 174.819 460.893 179.29 457.226 182.849C454.053 185.93 452.874 190.526 454.114 194.773C457.708 207.077 466.69 232.49 479.579 232.49C496.586 232.49 501.121 229.087 501.121 229.087C501.121 229.087 536.268 273.328 562.345 276.731C588.422 280.134 559.564 222.534 559.564 222.534V222.534Z" fill="#FFB6B6"/>
</g>
<defs>
<clipPath id="clip0_27_382">
<rect width="580" height="604" fill="white"/>
</clipPath>
</defs>
</svg>
