<svg width="638" height="603" viewBox="0 0 638 603" fill="none" xmlns="http://www.w3.org/2000/svg">
<g clip-path="url(#clip0_26_67)">
<path d="M165.75 329.794C167.801 335.864 166.332 341.843 162.468 343.147C158.605 344.452 153.812 340.589 151.761 334.516C150.908 332.102 150.646 329.518 150.997 326.982L142.631 301.152L154.836 297.485L161.787 323.338C163.605 325.142 164.964 327.356 165.75 329.794Z" fill="#FFB6B6"/>
<path d="M170.874 183.502C170.874 183.502 152.446 184.303 151.645 193.918C150.843 203.533 127.953 263.502 127.953 263.502L145.953 318.502L159.953 309.502L151.953 266.502L178.953 225.502L170.874 183.502Z" fill="#FF7B54"/>
<path d="M576.41 131.837C576.41 94.2116 544.609 73.5137 508.283 63.7104C461.71 51.1417 427.601 76.575 440.157 131.837C443.002 144.362 449.808 158.99 458.233 171.502H525.086C547.417 156.964 576.41 161.041 576.41 131.837Z" fill="#FF7B54"/>
<path d="M124.895 574.279L134.647 575.74L145.625 532.485L131.234 530.328L124.895 574.279Z" fill="#FFB6B6"/>
<path d="M155.885 598.904C155.677 600.556 154.336 601.748 152.889 601.566L133.476 599.125C133.476 599.125 132.531 591.205 125.158 586.92L123.239 597.837L113.224 596.578L116.659 579.068C116.659 579.068 115.168 569.281 121.339 565.151C127.51 561.02 122.919 561.126 122.919 561.126L126.483 550.469L141.392 554.152L139.346 571.327L144.548 589.283L154.65 595.959C155.55 596.553 156.035 597.711 155.884 598.904L155.885 598.904Z" fill="#3C2A21"/>
<path d="M243.304 576.921L253.162 577.154L258.656 532.867L244.109 532.523L243.304 576.921Z" fill="#FFB6B6"/>
<path d="M277.124 597.487C277.124 599.152 275.942 600.502 274.485 600.502H254.918C254.918 600.502 252.993 592.762 245.142 589.431L244.6 600.502H234.507L235.73 582.701C235.73 582.701 233.03 573.177 238.637 568.309C244.245 563.44 239.703 564.118 239.703 564.118L241.909 553.1L257.161 554.894L257.273 572.189L264.675 589.356L275.532 594.72C276.499 595.197 277.124 596.284 277.124 597.487L277.124 597.487Z" fill="#3C2A21"/>
<path d="M169.615 285.007L150.62 347.776L154.033 442.684L126.64 539.502H148.39L193.708 443.987L205.955 359.338L239.817 542.949H260.862L255.953 350.502L240.643 283.355L169.615 285.007Z" fill="#3C2A21"/>
<path d="M218.344 160.295L191.089 158.643L183.656 173.51L156.401 188.376L176.223 241.234L159.953 314.502C159.953 314.502 176.691 298.944 195.953 318.502C224.478 347.467 253.953 333.502 253.953 333.502L236.953 256.502L242.953 192.502C243.724 187.453 250.783 181.163 245.953 179.502L225.777 171.032L218.344 160.295H218.344Z" fill="#FF7B54"/>
<path d="M212.327 169.691H179.729C179.777 167.476 179.452 165.277 178.781 163.284C178.762 165.495 178.426 167.677 177.794 169.691H176.314C174.049 169.688 172.214 167.033 172.211 163.757C164.551 155.249 165.556 144.811 172.211 133.115C172.212 118.111 181.08 95.6206 190.716 105.032C191.027 105.009 195.911 101.879 196.222 101.879C204.699 101.889 207.614 112.955 210.174 124.645C213.091 122.7 215.101 130.817 216.555 145.103C216.979 149.272 217.356 153.966 217.695 159.089C218.629 163.388 216.978 167.968 214.006 169.32C213.462 169.567 212.896 169.694 212.325 169.696L212.327 169.691L212.327 169.691Z" fill="#3C2A21"/>
<path d="M205.664 156.524C218.894 156.524 229.618 145.799 229.618 132.57C229.618 119.34 218.894 108.616 205.664 108.616C192.435 108.616 181.71 119.34 181.71 132.57C181.71 145.799 192.435 156.524 205.664 156.524Z" fill="#FFB6B6"/>
<path d="M207.953 170.502C205.709 173.494 201.784 174.684 198.256 173.443L187.588 169.691C186.59 169.691 185.74 169.106 185.694 168.348L185.688 168.264C185.581 166.685 182.664 166.419 181.987 167.915C181.715 168.516 181.404 169.109 181.057 169.691H179.124V123.078C179.124 115.084 187.654 108.603 198.176 108.603H198.176C207.16 108.603 214.924 113.371 216.806 120.045C216.806 120.045 230.161 132.491 222.29 139.489C214.419 146.486 225.87 152.181 225.87 152.181C228.144 160.244 220.915 173.349 210.679 176.019C209.475 176.333 209.23 170.502 207.953 170.502V170.502Z" fill="#3C2A21"/>
<path d="M235.509 129.013C234.527 130.408 231.96 134.065 223.953 133.502C221.914 133.355 214.671 131.362 209.399 131.46C205.906 131.521 203.755 131.497 199.453 131.46C194.368 131.411 192.976 131.313 191.993 130.236C190.091 128.144 191.658 124.424 190.75 124.118C189.992 123.861 188.027 126.162 187.02 129.013C184.906 134.996 192.491 143.329 193.237 151.038C194.032 159.346 186.2 143.427 187.02 151.038C187.94 159.603 191.235 158.955 191.198 162.05C191.185 162.515 191.048 162.919 190.75 163.274C190.489 163.592 190.228 163.714 185.777 164.498C180.455 165.44 177.782 165.905 177.074 165.721C175.246 165.256 173.393 162.674 172.1 160.827C169.962 157.804 171.479 160.851 172.1 157.156C172.697 153.583 174.562 153.118 174.587 149.814C174.612 145.654 171.665 144.394 169.614 140.025C165.822 131.949 169.527 122.601 170.857 119.224C171.496 117.604 172.655 115.554 174.686 112.168C176.317 109.449 178.481 107.054 181.12 105.259C185.075 102.57 189.67 100.727 194.637 99.9966C197.358 99.5966 200.133 99.8066 202.808 100.439L209.737 102.078C212.649 102.766 215.395 104.015 217.816 105.751C220.073 105.758 222.029 107.194 222.803 109.28C222.884 109.498 222.958 109.625 223.018 109.607C235.509 105.764 235.5 117.145 235.363 124.255C235.349 124.982 235.376 125.626 235.471 126.149V126.186C235.72 127.593 235.782 128.621 235.509 129.013L235.509 129.013Z" fill="#3C2A21"/>
<path d="M88.4978 583.675C86.4318 583.804 85.29 581.238 86.853 579.742L87.0085 579.123C86.9882 579.074 86.9677 579.025 86.9471 578.976C84.8528 573.983 81.1031 578.696 75.6994 579.031C67.7522 579.524 67.8709 585.535 70.9496 592.563C71.7853 594.471 64.6909 579.077 64.6909 568.743C64.6909 566.146 64.833 563.549 65.1236 560.96C65.3626 558.841 65.692 556.735 66.1184 554.649C68.4241 543.372 73.4169 532.631 80.6185 523.66C84.0804 521.767 86.9675 518.809 88.7114 515.263C89.3379 513.984 94.7206 512.904 94.9532 511.502C94.5592 511.554 88.5758 505.258 88.8729 504.89C88.3239 504.057 87.3411 503.643 86.7415 502.83C83.7592 498.786 79.6503 499.492 77.5053 504.987C72.923 507.3 72.8787 511.135 75.6903 514.824C77.4791 517.171 77.7249 520.346 79.2944 522.859C79.1329 523.065 78.965 523.266 78.8035 523.472C78.7414 523.552 78.6796 523.632 78.6178 523.711C76.0845 526.99 71.0259 526.15 69.6151 522.255C69.5122 521.97 68.639 537.36 69.2961 521.431C69.9531 505.502 64.2241 513.611 61.3236 509.938C57.8592 505.55 50.8119 507.544 50.2014 513.101C50.1956 513.154 50.1899 513.208 50.1843 513.261C50.6132 513.503 51.0334 513.76 51.4438 514.031C53.7832 515.579 52.9739 519.205 50.2019 519.632L50.1391 519.642C50.2941 521.186 50.5589 522.717 50.9464 524.221C47.2455 538.534 55.2326 543.749 66.6396 543.985L67.234 544.831C66.1538 547.939 65.2849 551.122 64.6328 554.346C64.0192 557.336 63.5929 560.359 63.3539 563.394L63.344 563.524C63.1461 566.107 59.8786 567.205 58.2364 565.202C57.8184 564.693 57.3907 564.246 56.9596 563.892C52.014 559.829 45.0268 558.333 39.6914 555.068C37.123 553.496 33.8319 555.527 34.2801 558.505L34.302 558.647C35.0964 558.97 35.8714 559.345 36.6207 559.765C37.05 560.007 37.4705 560.264 37.8813 560.536C40.221 562.083 39.411 565.711 36.6382 566.136L36.5754 566.146C36.5302 566.152 36.4914 566.159 36.4463 566.165L36.4874 566.262C38.2712 570.459 42.5347 573.177 47.0876 572.928C52.4468 572.635 59.1037 577.115 64.9751 585.038L64.9816 585.038C66.1441 590.102 67.8428 595.049 70.026 599.764H88.0461C88.1108 599.564 88.1689 599.357 88.227 599.157C86.5606 599.261 84.8813 599.164 83.2407 598.86C84.5778 597.22 85.9147 595.566 87.2517 593.926C87.284 593.893 87.3099 593.861 87.3357 593.829C88.0139 592.989 88.6985 592.156 89.3767 591.316L89.377 591.315C89.4195 588.738 89.1105 586.169 88.4983 583.675L88.4978 583.675L88.4978 583.675Z" fill="#F2F2F2"/>
<path d="M0 601.453C0 602.113 0.53003 602.643 1.19006 602.643H362.48C363.14 602.643 363.67 602.113 363.67 601.453C363.67 600.793 363.14 600.263 362.48 600.263H1.19006C0.53003 600.263 0 600.793 0 601.453Z" fill="#CCCCCC"/>
<path d="M541.953 31.5022V137.502C541.953 146.876 534.327 154.502 524.953 154.502H418.953C409.579 154.502 401.953 146.876 401.953 137.502V31.5022C401.953 22.1282 409.579 14.5022 418.953 14.5022H524.953C534.327 14.5022 541.953 22.1282 541.953 31.5022ZM524.953 152.502C533.237 152.502 539.953 145.786 539.953 137.502V84.0613C539.953 46.7494 509.706 16.5022 472.394 16.5022H418.953C410.669 16.5022 403.953 23.2179 403.953 31.5022V137.502C403.953 145.786 410.669 152.502 418.953 152.502H524.953Z" fill="#AF897D"/>
<path d="M459.397 236.493H425.176C424.314 236.493 423.612 235.791 423.612 234.928C423.612 234.065 424.314 233.364 425.176 233.364H459.397C460.26 233.364 460.961 234.065 460.961 234.928C460.961 235.791 460.26 236.493 459.397 236.493V236.493Z" fill="#AF897D"/>
<path d="M617.397 3.12911H583.176C582.314 3.12911 581.612 2.42712 581.612 1.56439C581.612 0.70166 582.314 0 583.176 0H617.397C618.26 0 618.961 0.70166 618.961 1.56439C618.961 2.42712 618.26 3.1291 617.397 3.1291V3.12911Z" fill="#AF897D"/>
<path d="M617.397 36.4926H583.176C582.314 36.4926 581.612 35.7906 581.612 34.9279C581.612 34.0652 582.314 33.3635 583.176 33.3635H617.397C618.26 33.3635 618.961 34.0652 618.961 34.9279C618.961 35.7906 618.26 36.4926 617.397 36.4926V36.4926Z" fill="#AF897D"/>
<path d="M635.76 19.822H564.813C563.951 19.822 563.249 19.12 563.249 18.2573C563.249 17.3945 563.951 16.6929 564.813 16.6929H635.76C636.623 16.6929 637.325 17.3945 637.325 18.2573C637.325 19.12 636.623 19.822 635.76 19.822V19.822Z" fill="#AF897D"/>
<path d="M564.938 264.502H416.969C408.138 264.502 400.953 257.318 400.953 248.487V194.518C400.953 185.687 408.138 178.502 416.969 178.502H564.938C573.769 178.502 580.953 185.687 580.953 194.518V248.487C580.953 257.318 573.769 264.502 564.938 264.502ZM416.969 180.502C409.241 180.502 402.953 186.79 402.953 194.518V248.487C402.953 256.215 409.241 262.502 416.969 262.502H564.938C572.666 262.502 578.953 256.215 578.953 248.487V194.518C578.953 186.79 572.666 180.502 564.938 180.502H416.969Z" fill="#AF897D"/>
<path d="M621.749 171.502H603.89C573.598 171.502 548.953 146.858 548.953 116.566V98.7073C548.953 92.5286 553.979 87.5022 560.158 87.5022H621.749C627.927 87.5022 632.953 92.5286 632.953 98.7073V160.297C632.953 166.476 627.927 171.502 621.749 171.502ZM560.158 89.5022C555.074 89.5022 550.953 93.6232 550.953 98.7068V116.566C550.953 145.802 574.654 169.502 603.89 169.502H621.749C626.832 169.502 630.953 165.381 630.953 160.298V121.069C630.953 103.635 616.82 89.5022 599.386 89.5022H560.158Z" fill="#AF897D"/>
<path d="M256.43 336.091C256.894 342.482 260.568 347.423 264.634 347.127C268.701 346.831 271.621 341.411 271.156 335.018C271.006 332.462 270.245 329.979 268.938 327.777L266.631 300.725L253.959 302.079L257.579 328.603C256.604 330.972 256.21 333.54 256.43 336.091Z" fill="#FFB6B6"/>
<path d="M237.032 178.502C237.032 178.502 255.46 179.303 256.262 188.918C257.063 198.533 265.876 260.228 265.876 260.228L269.882 321.922L255.46 324.326L237.953 251.414L237.032 178.502H237.032Z" fill="#FF7B54"/>
<path d="M507.283 202.963C511.086 195.714 515.907 190.483 521.22 186.502H458.604C474.72 209.523 496.092 224.297 507.283 202.963Z" fill="#FF7B54"/>
</g>
<defs>
<clipPath id="clip0_26_67">
<rect width="637.325" height="602.643" fill="white"/>
</clipPath>
</defs>
</svg>
